<svg xmlns="http://www.w3.org/2000/svg" width="42" height="46" viewBox="0 0 42 46"><g><g><path fill="#583b53" d="M42 23v18.328C42 43.904 39.86 46 37.231 46H4.769c-2.63 0-4.768-2.096-4.768-4.672V.923A.887.887 0 0 1 .274.259a.93.93 0 0 1 1.29.005l2.599 2.545L6.76.264a.93.93 0 0 1 1.297 0l2.598 2.545L13.253.264a.93.93 0 0 1 1.297 0l2.597 2.545L19.745.264a.93.93 0 0 1 1.297 0l2.598 2.545L26.238.264a.93.93 0 0 1 1.297 0l2.597 2.545L32.73.264a.931.931 0 0 1 1-.195c.342.14.566.467.566.83v21.203h6.787c.506 0 .917.402.917.898zM4.769 44.203h28.708a4.588 4.588 0 0 1-1.014-2.875V23.025 3.068L30.78 4.715a.93.93 0 0 1-1.297 0L26.887 2.17l-2.598 2.545a.93.93 0 0 1-1.297 0L20.394 2.17l-2.598 2.545a.93.93 0 0 1-1.297 0L13.901 2.17l-2.597 2.545a.93.93 0 0 1-1.297 0L7.409 2.17 4.81 4.715a.93.93 0 0 1-1.297 0l-1.68-1.646v38.26c0 1.584 1.317 2.874 2.935 2.874zm35.397-2.875v-17.43h-5.869v17.43c0 1.585 1.316 2.875 2.934 2.875s2.935-1.29 2.935-2.875zM20.633 17.454c0 1.464-1.09 2.7-2.568 3.069v.733c0 .496-.41.898-.917.898a.908.908 0 0 1-.917-.898v-.733c-1.478-.369-2.568-1.605-2.568-3.07 0-.495.411-.898.917-.898.507 0 .918.403.918.899 0 .763.74 1.384 1.65 1.384.91 0 1.65-.62 1.65-1.384 0-.764-.74-1.385-1.65-1.385-1.921 0-3.485-1.427-3.485-3.181 0-1.465 1.09-2.7 2.568-3.069V9.21c0-.496.41-.898.917-.898.507 0 .917.402.917.898v.61c1.478.368 2.568 1.603 2.568 3.068 0 .496-.41.898-.917.898a.908.908 0 0 1-.917-.898c0-.764-.74-1.385-1.65-1.385-.91 0-1.651.621-1.651 1.385 0 .763.74 1.384 1.65 1.384 1.921 0 3.485 1.428 3.485 3.182zm6.645-2.283c0 .496-.41.898-.917.898h-1.787a.908.908 0 0 1-.917-.898c0-.496.41-.898.917-.898h1.787c.507 0 .917.402.917.898zm-16.639 0c0 .496-.41.898-.917.898H7.935a.908.908 0 0 1-.917-.898c0-.496.41-.898.917-.898h1.787c.507 0 .917.402.917.898zm17.103 9.986c0 .496-.41.898-.917.898H12.297a.908.908 0 0 1-.917-.898c0-.496.41-.898.917-.898h14.528c.507 0 .917.402.917.898zm-19.354 0a.896.896 0 0 1-.269.635.934.934 0 0 1-1.297 0 .896.896 0 0 1-.268-.635c0-.236.098-.468.268-.635a.934.934 0 0 1 1.297 0c.17.167.269.399.269.635zm19.354 5.93c0 .496-.41.898-.917.898H12.297a.908.908 0 0 1-.917-.899c0-.496.41-.898.917-.898h14.528c.507 0 .917.402.917.898zm-19.354 0a.897.897 0 0 1-.269.635.934.934 0 0 1-1.297 0 .896.896 0 0 1-.268-.636c0-.236.098-.468.268-.635a.934.934 0 0 1 1.297 0c.17.167.269.4.269.635zm19.354 5.929c0 .496-.41.898-.917.898H12.297a.908.908 0 0 1-.917-.898c0-.496.41-.898.917-.898h14.528c.507 0 .917.402.917.898zm-19.354 0a.896.896 0 0 1-.269.635.934.934 0 0 1-1.297 0 .895.895 0 0 1-.268-.635c0-.236.098-.468.268-.635a.933.933 0 0 1 1.297 0c.17.167.269.399.269.635z"/></g></g></svg>