<svg xmlns="http://www.w3.org/2000/svg" width="36" height="24" viewBox="0 0 36 24"><g><g><path fill="#583b53" d="M36 2.87V21.13a2.874 2.874 0 0 1-2.87 2.87H2.87A2.874 2.874 0 0 1 0 21.13V2.912C0 1.334 1.315 0 2.87 0h30.26A2.874 2.874 0 0 1 36 2.87zM35 21V3c0-.847-1.153-2-2-2H3c-.833 0-2 1.145-2 2v18c0 .847 1.153 2 2 2h30c.847 0 1.666-1.024 1.666-1.871zm-11.032-9.037a.667.667 0 0 1-.668.667 3.96 3.96 0 0 1-3.954-3.955A3.96 3.96 0 0 1 23.3 4.72a3.96 3.96 0 0 1 3.955 3.955c0 .792-.235 1.553-.668 2.2.41.266.898.421 1.423.421a2.623 2.623 0 0 0 2.62-2.62 2.623 2.623 0 0 0-2.62-2.621.667.667 0 0 1 0-1.335 3.96 3.96 0 0 1 3.954 3.955 3.96 3.96 0 0 1-3.954 3.955 3.96 3.96 0 0 1-3.955-3.955c0-.768.221-1.514.64-2.157l.028-.042a2.604 2.604 0 0 0-1.423-.421 2.623 2.623 0 0 0-2.62 2.62 2.623 2.623 0 0 0 2.62 2.621c.369 0 .668.299.668.667zm1.687-4.436a2.612 2.612 0 0 0 0 2.298 2.612 2.612 0 0 0 0-2.298zm-12.982-.42v3.106c0 1.353-1.1 2.454-2.453 2.454H5.134a2.457 2.457 0 0 1-2.454-2.454V7.107c0-1.353 1.101-2.454 2.454-2.454h5.086c1.353 0 2.453 1.101 2.453 2.454zm-1.416 3.526H9.294a.667.667 0 0 1 0-1.334h2.045V7.987H9.294a.667.667 0 1 1 0-1.334h1.948a1.12 1.12 0 0 0-1.022-.665H5.134a1.12 1.12 0 0 0-1.022.665h1.915a.667.667 0 1 1 0 1.334H4.015V9.3h2.012a.667.667 0 0 1 0 1.334h-1.93c.167.41.568.7 1.037.7h5.086c.468 0 .87-.29 1.037-.7zM5.356 17.35V18.6a.667.667 0 0 1-1.334 0v-1.252a.667.667 0 0 1 1.334 0zm3.316 0V18.6a.667.667 0 0 1-1.334 0v-1.252a.667.667 0 0 1 1.334 0zm3.316 0V18.6a.667.667 0 0 1-1.334 0v-1.252a.667.667 0 0 1 1.334 0zm3.316 0V18.6a.667.667 0 0 1-1.334 0v-1.252a.667.667 0 0 1 1.334 0zm3.339 0V18.6a.667.667 0 0 1-1.334 0v-1.252a.667.667 0 0 1 1.334 0zm3.316 0V18.6a.667.667 0 0 1-1.334 0v-1.252a.667.667 0 0 1 1.334 0zm3.316 0V18.6a.667.667 0 0 1-1.334 0v-1.252a.667.667 0 0 1 1.334 0zm3.316 0V18.6a.667.667 0 0 1-1.334 0v-1.252a.667.667 0 0 1 1.334 0zm3.387 0V18.6a.667.667 0 0 1-1.334 0v-1.252a.667.667 0 0 1 1.334 0z"/></g></g></svg>