<svg xmlns="http://www.w3.org/2000/svg" width="37" height="37" viewBox="0 0 37 37"><g><g><path fill="#583b53" d="M37 6.551v27.365A3.082 3.082 0 0 1 33.917 37H3.084A3.083 3.083 0 0 1 0 33.916V6.551A3.082 3.082 0 0 1 3.084 3.47h5.01V1.156a1.156 1.156 0 1 1 2.312 0V3.47h6.938V1.156a1.156 1.156 0 1 1 2.312 0V3.47L26 3l.594-1.844a1.156 1.156 0 1 1 2.312 0L29 3h5c1.703 0 3 1.848 3 3.551zM35 6c0-.425-.658-.219-1.083-.219h-5.01v2.313a1.156 1.156 0 1 1-2.313 0V5.78h-6.938v2.313a1.156 1.156 0 0 1-2.312 0V5.78h-6.938v2.313a1.156 1.156 0 0 1-2.312 0V5.78h-5.01C2.658 5.781 2 5.575 2 6v28c0 .426.574 1 1 1h31c.425 0 1-.574 1-1zM8.094 13.875h4.625v3.469H8.094zm0 5.781h4.625v3.469H8.094zm0 5.781h4.625v3.47H8.094zm8.093 0h4.625v3.47h-4.625zm0-5.78h4.625v3.468h-4.625zm0-5.782h4.625v3.469h-4.625zm8.094 11.562h4.625v3.47h-4.625zm0-5.78h4.625v3.468h-4.625zm0-5.782h4.625v3.469h-4.625z"/></g></g></svg>