<svg xmlns="http://www.w3.org/2000/svg" width="42" height="46" viewBox="0 0 42 46"><g><g><path fill="#789429" d="M42 2.789v35.51c0 .26-.105.51-.293.694l-6.834 6.72a1.009 1.009 0 0 1-.707.287H11.83c-1.565 0-2.837-1.251-2.837-2.79V32.474C3.806 31.013 0 26.31 0 20.75S3.806 10.49 8.992 9.031V2.788C8.992 1.25 10.264 0 11.829 0h27.334C40.727 0 42 1.251 42 2.789zm-31.01 0v2.964h29.012V2.79a.832.832 0 0 0-.839-.824H11.83a.832.832 0 0 0-.839.824zm1.409 28.187c5.734 0 10.4-4.587 10.4-10.225s-4.666-10.224-10.4-10.224c-5.735 0-10.4 4.587-10.4 10.224 0 5.638 4.665 10.225 10.4 10.225zm-.57 13.059h21.338v-3.93c0-1.538 1.272-2.79 2.837-2.79H40V7.719H10.99v.923c.462-.051.932-.079 1.408-.079 3.796 0 7.198 1.686 9.474 4.336h5.993c.552 0 1 .44 1 .982a.99.99 0 0 1-1 .983h-4.614a11.95 11.95 0 0 1 1.512 4.98h3.102c.552 0 1 .44 1 .983a.99.99 0 0 1-1 .982H24.75a11.958 11.958 0 0 1-1.584 4.981h4.7c.551 0 .999.44.999.983a.99.99 0 0 1-1 .982h-6.122a12.463 12.463 0 0 1-9.344 4.187c-.477 0-.947-.028-1.409-.08v10.35c0 .454.376.824.839.824zm26.76-4.754h-2.585a.832.832 0 0 0-.839.824v2.54zm-7.797-25.4a.99.99 0 0 1 1-.983h3.317c.552 0 1 .44 1 .982a.99.99 0 0 1-1 .983h-3.318a.99.99 0 0 1-1-.983zm0 6.945a.99.99 0 0 1 1-.983h3.317c.552 0 1 .44 1 .983a.99.99 0 0 1-1 .982h-3.318a.99.99 0 0 1-1-.982zm0 6.946a.99.99 0 0 1 1-.983h3.317c.552 0 1 .44 1 .983a.99.99 0 0 1-1 .982h-3.318a.99.99 0 0 1-1-.982zm-5.03 7.927a.99.99 0 0 1-.999-.982.99.99 0 0 1 1-.982h9.346c.552 0 1 .44 1 .982a.99.99 0 0 1-1 .982zm-5.606-17.486l-8.842 8.692c-.328.323-.764.5-1.229.5-.464 0-.9-.177-1.229-.5l-4.215-4.144a1.69 1.69 0 0 1 0-2.416l1.22-1.2c.327-.322.764-.5 1.228-.5.464 0 .9.178 1.229.5l1.767 1.738 6.394-6.285c.329-.323.765-.5 1.23-.5.464 0 .9.177 1.228.5l1.22 1.198a1.69 1.69 0 0 1 0 2.417zm-1.597-1.209l-.85-.836-6.917 6.8a1.011 1.011 0 0 1-1.413 0l-2.29-2.252-.851.837 3.847 3.782z"/></g></g></svg>