<svg width="12" height="18" viewBox="0 0 12 18" fill="none" xmlns="http://www.w3.org/2000/svg">
<path d="M5.99999 16.571C5.85774 16.4036 5.6801 16.1912 5.47676 15.9406C4.93633 15.2747 4.21657 14.3428 3.49781 13.2775C2.77808 12.2107 2.06552 11.0193 1.53442 9.83383C1.00038 8.64177 0.666656 7.49242 0.666656 6.49984C0.666656 3.55515 3.0553 1.1665 5.99999 1.1665C8.94468 1.1665 11.3333 3.55515 11.3333 6.49984C11.3333 7.49242 10.9996 8.64177 10.4656 9.83383C9.93446 11.0193 9.2219 12.2107 8.50218 13.2775C7.78341 14.3428 7.06365 15.2747 6.52322 15.9406C6.31988 16.1912 6.14224 16.4036 5.99999 16.571ZM3.41666 6.49984C3.41666 7.92598 4.57385 9.08317 5.99999 9.08317C7.42613 9.08317 8.58332 7.92598 8.58332 6.49984C8.58332 5.07369 7.42613 3.9165 5.99999 3.9165C4.57385 3.9165 3.41666 5.07369 3.41666 6.49984Z" stroke="#A0A0A2"/>
</svg>
